#!OML:ASF X:\für Bonn\!DataBase\2005_08_10_Bjorn_Final\c3d\bjorn.ASF
:FULLY-SPECIFIED
:DEGREES
162
root 0.375726 5.7826 8.77885 -2368.68 -3.73608 168.291
lowerback 35.503 -0.784502 10.3661
upperback 26.8615 -13.817 3.95342
thorax 13.2288 -11.6528 0.41571
lowerneck 2.43511 -4.20678 16.8555
upperneck 8.63538 -4.839 -3.70707
head 1.7189 -1.79072 -3.82132
rclavicle -6.20208e-014 5.725e-014
rhumerus -380.704 -41.7812 289.034
rradius 27.4206
rwrist -15.2613
rhand -15.9218 4.46809
rfingers 7.12502
rthumb 10.2756 -25.2609
lclavicle -6.20208e-014 5.725e-014
lhumerus -16.1615 -3.39457 85.7391
lradius 19.6545
lwrist 3.02606
lhand -3.3985 -6.84267
lfingers 7.12502
lthumb 22.3315 741.887
rfemur -251.219 -73.9783 142.96
rtibia 153.245
rfoot -43.1408 57.8244
rtoes -8.11544
lfemur 87.0326 141.302 162.309
ltibia 146.489
lfoot -24.4944 -18.2183
ltoes -25.9282
163
root 0.408554 5.68138 8.7789 -2369.34 -4.27072 168.491
lowerback 35.1571 -0.69873 10.0071
upperback 27.0389 -13.66 3.54675
thorax 13.4599 -11.5276 0.0574782
lowerneck 2.27667 -4.20857 17.2076
upperneck 8.91528 -4.85321 -3.62116
head 1.8242 -1.75984 -3.85653
rclavicle 7.15625e-014 -1.11319e-013
rhumerus -381.723 -41.9483 288.754
rradius 27.2347
rwrist -15.1848
rhand -16.1062 4.50481
rfingers 7.12502
rthumb 10.0977 -25.2329
lclavicle 7.15625e-014 -1.11319e-013
lhumerus -15.7917 0.163442 84.9528
lradius 17.7505
lwrist -0.561589
lhand -2.04361 -6.25003
lfingers 7.12502
lthumb 23.6316 742.318
rfemur -255.296 -72.8135 146.101
rtibia 153.859
rfoot -43.9225 57.975
rtoes -8.18524
lfemur 86.6076 140.358 162.527
ltibia 146.853
lfoot -24.3245 -19.4292
ltoes -25.8222
164
root 0.441106 5.58431 8.77921 -2369.99 -4.81096 168.699
lowerback 34.8507 -0.594948 9.63023
upperback 27.1869 -13.4794 3.19888
thorax 13.6628 -11.4042 -0.223145
lowerneck 2.1 -4.2106 17.3514
upperneck 9.20222 -4.88029 -3.46776
head 1.93917 -1.73975 -3.83961
rclavicle 3.49861e-014 1.90833e-014
rhumerus -382.723 -42.0116 288.57
rradius 27.0522
rwrist -15.2008
rhand -16.2662 4.46405
rfingers 7.12502
rthumb 9.94332 -25.2811
lclavicle 3.49861e-014 1.90833e-014
lhumerus -15.5089 4.34179 84.1045
lradius 15.9201
lwrist -4.87125
lhand -0.855014 -5.80878
lfingers 7.12502
lthumb 24.7712 742.607
rfemur -258.929 -71.6849 148.78
rtibia 154.442
rfoot -44.6388 58.1563
rtoes -8.23626
lfemur 86.1892 139.495 162.737
ltibia 147.193
lfoot -24.1894 -20.6045
ltoes -25.9704
165
root 0.472013 5.49655 8.78098 -2370.69 -5.31961 168.909
lowerback 34.6144 -0.47616 9.30945
upperback 27.3399 -13.2724 2.85841
thorax 13.8505 -11.2683 -0.520017
lowerneck 1.91309 -4.22125 17.4326
upperneck 9.47649 -4.92536 -3.27145
head 2.05288 -1.72941 -3.79981
rclavicle -8.26944e-014 6.36111e-015
rhumerus -383.739 -42.1106 288.425
rradius 26.8505
rwrist -15.0937
rhand -16.3834 4.32987
rfingers 7.12502
rthumb 9.83029 -25.4207
lclavicle -8.26944e-014 6.36111e-015
lhumerus -15.3452 9.04683 83.0906
lradius 14.2271
lwrist -9.72525
lhand 0.175985 -5.45238
lfingers 7.12502
lthumb 25.7589 742.824
rfemur -262.271 -70.7012 151.243
rtibia 154.957
rfoot -45.2975 58.3423
rtoes -8.13772
lfemur 85.9637 138.616 163.017
ltibia 147.479
lfoot -24.141 -21.7442
ltoes -26.0979
166
root 0.501787 5.4151 8.7828 -2371.44 -5.81457 169.16
lowerback 34.4534 -0.352689 9.02897
upperback 27.4754 -13.0558 2.56329
thorax 14.0039 -11.1362 -0.777193
lowerneck 1.70455 -4.23405 17.3365
upperneck 9.78051 -4.98469 -2.98789
head 2.18385 -1.727 -3.7073
rclavicle -7.95139e-015 5.24792e-014
rhumerus -384.727 -42.2162 288.376
rradius 26.5767
rwrist -14.9617
rhand -16.4406 4.19022
rfingers 7.12502
rthumb 9.77512 -25.5629
lclavicle -7.95139e-015 5.24792e-014
lhumerus -15.3263 14.7904 81.8543
lradius 12.6188
lwrist -15.5745
lhand 0.992621 -5.23189
lfingers 7.12502
lthumb 26.5408 742.929
rfemur -265.617 -69.6845 153.782
rtibia 155.43
rfoot -46.1064 58.5267
rtoes -8.00584
lfemur 85.8769 137.703 163.388
ltibia 147.727
lfoot -24.1431 -22.9031
ltoes -26.1799
167
root 0.531172 5.34005 8.785 -2372.16 -6.29343 169.43
lowerback 34.285 -0.218402 8.77022
upperback 27.5963 -12.8098 2.29265
thorax 14.1486 -10.9851 -1.02237
lowerneck 1.54349 -4.259 17.1533
upperneck 10.0378 -5.05459 -2.64746
head 2.29585 -1.73287 -3.58231
rclavicle -3.02153e-014 -2.54444e-014
rhumerus -385.736 -42.4497 288.424
rradius 26.2223
rwrist -14.6626
rhand -16.4849 4.02224
rfingers 7.12502
rthumb 9.73236 -25.7329
lclavicle -3.02153e-014 -2.54444e-014
lhumerus -15.5789 21.7159 80.2521
lradius 11.1614
lwrist -22.5009
lhand 1.59761 -5.09792
lfingers 7.12502
lthumb 27.1197 742.974
rfemur -268.378 -68.8216 155.882
rtibia 155.832
rfoot -46.8692 58.5224
rtoes -8.10851
lfemur 85.8011 136.81 163.767
ltibia 147.939
lfoot -24.0846 -24.0786
ltoes -26.1222
168
root 0.559804 5.26945 8.78741 -2372.86 -6.77429 169.687
lowerback 34.1347 -0.0624597 8.47255
upperback 27.698 -12.5406 2.05632
thorax 14.2767 -10.8332 -1.2094
lowerneck 1.36898 -4.27636 16.916
upperneck 10.2841 -5.11794 -2.34972
head 2.40702 -1.74046 -3.46276
rclavicle -9.54166e-015 5.40694e-014
rhumerus -386.659 -42.3577 288.464
rradius 25.788
rwrist -14.6999
rhand -16.5692 3.82551
rfingers 7.12502
rthumb 9.65105 -25.9334
lclavicle -9.54166e-015 5.40694e-014
lhumerus -15.5057 24.5517 79.8662
lradius 9.85513
lwrist -25.0682
lhand 1.34369 -4.2937
lfingers 7.12502
lthumb 26.8768 743.816
rfemur -271.118 -67.9179 157.89
rtibia 156.219
rfoot -47.5786 58.6746
rtoes -8.04968
lfemur 85.7625 135.978 164.13
ltibia 148.131
lfoot -24.094 -25.1338
ltoes -26.2077
